<svg width="164" height="15" viewBox="0 0 164 15" fill="none" xmlns="http://www.w3.org/2000/svg">
<path d="M0.26 14V1.04H1.88L8.639 11.165V1.04H10.259V14H8.639L1.88 3.866V14H0.26ZM16.3756 14V1.04H24.5656V2.561H17.9776V6.62H23.4856V8.141H17.9776V12.479H24.5656V14H16.3756ZM35.4411 14.27C34.4391 14.27 33.5541 14.063 32.7861 13.649C32.0181 13.235 31.4151 12.656 30.9771 11.912C30.5451 11.162 30.3291 10.283 30.3291 9.275V1.049L31.9491 1.04V9.14C31.9491 9.752 32.0511 10.286 32.2551 10.742C32.4651 11.192 32.7411 11.567 33.0831 11.867C33.4251 12.167 33.8001 12.392 34.2081 12.542C34.6221 12.686 35.0331 12.758 35.4411 12.758C35.8551 12.758 36.2691 12.683 36.6831 12.533C37.0971 12.383 37.4721 12.161 37.8081 11.867C38.1501 11.567 38.4231 11.189 38.6271 10.733C38.8311 10.277 38.9331 9.746 38.9331 9.14V1.04H40.5531V9.275C40.5531 10.277 40.3341 11.153 39.8961 11.903C39.4641 12.653 38.8641 13.235 38.0961 13.649C37.3281 14.063 36.4431 14.27 35.4411 14.27ZM46.6733 14V1.04H51.7943C51.9203 1.04 52.0703 1.046 52.2443 1.058C52.4183 1.064 52.5863 1.082 52.7483 1.112C53.4503 1.22 54.0383 1.46 54.5123 1.832C54.9923 2.204 55.3523 2.675 55.5923 3.245C55.8323 3.809 55.9523 4.436 55.9523 5.126C55.9523 6.128 55.6913 6.998 55.1693 7.736C54.6473 8.468 53.8823 8.927 52.8743 9.113L52.2623 9.212H48.2753V14H46.6733ZM54.3863 14L51.8303 8.726L53.4143 8.24L56.2223 14H54.3863ZM48.2753 7.691H51.7403C51.8543 7.691 51.9833 7.685 52.1273 7.673C52.2773 7.661 52.4183 7.64 52.5503 7.61C52.9643 7.514 53.3003 7.34 53.5583 7.088C53.8223 6.83 54.0143 6.53 54.1343 6.188C54.2543 5.84 54.3143 5.486 54.3143 5.126C54.3143 4.766 54.2543 4.415 54.1343 4.073C54.0143 3.725 53.8223 3.422 53.5583 3.164C53.3003 2.906 52.9643 2.732 52.5503 2.642C52.4183 2.606 52.2773 2.585 52.1273 2.579C51.9833 2.567 51.8543 2.561 51.7403 2.561H48.2753V7.691ZM67.1325 14.27C65.8425 14.27 64.7475 13.985 63.8475 13.415C62.9475 12.845 62.2605 12.053 61.7865 11.039C61.3185 10.025 61.0845 8.852 61.0845 7.52C61.0845 6.188 61.3185 5.015 61.7865 4.001C62.2605 2.987 62.9475 2.195 63.8475 1.625C64.7475 1.055 65.8425 0.77 67.1325 0.77C68.4285 0.77 69.5265 1.055 70.4265 1.625C71.3265 2.195 72.0105 2.987 72.4785 4.001C72.9465 5.015 73.1805 6.188 73.1805 7.52C73.1805 8.852 72.9465 10.025 72.4785 11.039C72.0105 12.053 71.3265 12.845 70.4265 13.415C69.5265 13.985 68.4285 14.27 67.1325 14.27ZM67.1325 12.74C68.0985 12.746 68.9025 12.53 69.5445 12.092C70.1925 11.648 70.6755 11.033 70.9935 10.247C71.3175 9.461 71.4795 8.552 71.4795 7.52C71.4795 6.482 71.3175 5.573 70.9935 4.793C70.6755 4.013 70.1925 3.404 69.5445 2.966C68.9025 2.528 68.0985 2.306 67.1325 2.3C66.1665 2.294 65.3625 2.51 64.7205 2.948C64.0845 3.386 63.6045 3.998 63.2805 4.784C62.9565 5.57 62.7915 6.482 62.7855 7.52C62.7795 8.552 62.9385 9.458 63.2625 10.238C63.5865 11.018 64.0695 11.63 64.7115 12.074C65.3595 12.512 66.1665 12.734 67.1325 12.74ZM83.9161 14.27C82.6261 14.27 81.5311 13.985 80.6311 13.415C79.7311 12.845 79.0441 12.053 78.5701 11.039C78.1021 10.025 77.8681 8.852 77.8681 7.52C77.8681 6.188 78.1021 5.015 78.5701 4.001C79.0441 2.987 79.7311 2.195 80.6311 1.625C81.5311 1.055 82.6261 0.77 83.9161 0.77C85.4161 0.77 86.6491 1.151 87.6151 1.913C88.5871 2.675 89.2561 3.701 89.6221 4.991L87.9931 5.423C87.7291 4.457 87.2581 3.695 86.5801 3.137C85.9021 2.579 85.0141 2.3 83.9161 2.3C82.9501 2.3 82.1461 2.519 81.5041 2.957C80.8621 3.395 80.3791 4.007 80.0551 4.793C79.7311 5.573 79.5661 6.482 79.5601 7.52C79.5541 8.552 79.7131 9.461 80.0371 10.247C80.3611 11.027 80.8471 11.639 81.4951 12.083C82.1431 12.521 82.9501 12.74 83.9161 12.74C85.0141 12.74 85.9021 12.461 86.5801 11.903C87.2581 11.339 87.7291 10.577 87.9931 9.617L89.6221 10.049C89.2561 11.333 88.5871 12.359 87.6151 13.127C86.6491 13.889 85.4161 14.27 83.9161 14.27ZM95.1959 14V1.04H103.386V2.561H96.7979V6.62H102.306V8.141H96.7979V12.479H103.386V14H95.1959ZM109.149 14V1.04H110.769L117.528 11.165V1.04H119.148V14H117.528L110.769 3.866V14H109.149ZM128.604 14V2.561H124.185V1.04H134.625V2.561H130.206V14H128.604ZM139.658 14V1.04H147.848V2.561H141.26V6.62H146.768V8.141H141.26V12.479H147.848V14H139.658ZM153.612 14V1.04H158.733C158.859 1.04 159.009 1.046 159.183 1.058C159.357 1.064 159.525 1.082 159.687 1.112C160.389 1.22 160.977 1.46 161.451 1.832C161.931 2.204 162.291 2.675 162.531 3.245C162.771 3.809 162.891 4.436 162.891 5.126C162.891 6.128 162.63 6.998 162.108 7.736C161.586 8.468 160.821 8.927 159.813 9.113L159.201 9.212H155.214V14H153.612ZM161.325 14L158.769 8.726L160.353 8.24L163.161 14H161.325ZM155.214 7.691H158.679C158.793 7.691 158.922 7.685 159.066 7.673C159.216 7.661 159.357 7.64 159.489 7.61C159.903 7.514 160.239 7.34 160.497 7.088C160.761 6.83 160.953 6.53 161.073 6.188C161.193 5.84 161.253 5.486 161.253 5.126C161.253 4.766 161.193 4.415 161.073 4.073C160.953 3.725 160.761 3.422 160.497 3.164C160.239 2.906 159.903 2.732 159.489 2.642C159.357 2.606 159.216 2.585 159.066 2.579C158.922 2.567 158.793 2.561 158.679 2.561H155.214V7.691Z" fill="#181818"/>
</svg>
